<?xml version="1.0" encoding="UTF-8" standalone="no"?>
<!-- Created with Inkscape (http://www.inkscape.org/) -->

<svg
   xmlns:dc="http://purl.org/dc/elements/1.1/"
   xmlns:cc="http://creativecommons.org/ns#"
   xmlns:rdf="http://www.w3.org/1999/02/22-rdf-syntax-ns#"
   xmlns:svg="http://www.w3.org/2000/svg"
   xmlns="http://www.w3.org/2000/svg"
   xmlns:sodipodi="http://sodipodi.sourceforge.net/DTD/sodipodi-0.dtd"
   xmlns:inkscape="http://www.inkscape.org/namespaces/inkscape"
   id="svg3336"
   version="1.1"
   inkscape:version="0.91 r13725"
   xml:space="preserve"
   width="1000"
   height="1023.8525"
   viewBox="0 0 1000 1023.8525"
   sodipodi:docname="Final-Logo_3-no-text.svg"
   inkscape:export-filename="C:\Users\EricH\Downloads\Final-Logo_3-homepage.png"
   inkscape:export-xdpi="3.6923788"
   inkscape:export-ydpi="3.6923788"><metadata
     id="metadata3342"><rdf:RDF><cc:Work
         rdf:about=""><dc:format>image/svg+xml</dc:format><dc:type
           rdf:resource="http://purl.org/dc/dcmitype/StillImage" /><dc:title></dc:title></cc:Work></rdf:RDF></metadata><defs
     id="defs3340"><clipPath
       clipPathUnits="userSpaceOnUse"
       id="clipPath3350"><path
         d="m 0,819.082 800,0 L 800,0 0,0 0,819.082 Z"
         id="path3352"
         inkscape:connector-curvature="0" /></clipPath></defs><sodipodi:namedview
     pagecolor="#ffffff"
     bordercolor="#666666"
     borderopacity="1"
     objecttolerance="10"
     gridtolerance="10"
     guidetolerance="10"
     inkscape:pageopacity="0"
     inkscape:pageshadow="2"
     inkscape:window-width="3078"
     inkscape:window-height="1661"
     id="namedview3338"
     showgrid="false"
     inkscape:zoom="1.1027334"
     inkscape:cx="491.98236"
     inkscape:cy="512.728"
     inkscape:window-x="436"
     inkscape:window-y="84"
     inkscape:window-maximized="0"
     inkscape:current-layer="g3348" /><g
     id="g3344"
     inkscape:groupmode="layer"
     inkscape:label="Final-Logo_3"
     transform="matrix(1.25,0,0,-1.25,0,1023.8525)"><g
       id="g3346"><g
         id="g3348"
         clip-path="url(#clipPath3350)"><g
           id="g3354"
           transform="translate(401.9995,801.2876)"><path
             d="M 0,0 C 215.36,0 390.008,-174.647 390.008,-390.007 390.008,-605.352 215.36,-779.985 0,-779.985 c -215.359,0 -390.007,174.633 -390.007,389.978 C -390.007,-174.647 -215.359,0 0,0"
             style="fill:#224199;fill-opacity:1;fill-rule:evenodd;stroke:none"
             id="path3356"
             inkscape:connector-curvature="0" /></g><g
           id="g3358"
           transform="matrix(1.3586112,0,0,1.5336116,250.18446,514.80931)"><path
             d="m 0,0 c -3.334,-0.128 -6.482,-2.014 -9.136,-4.015 -4.043,-3.092 -6.454,-8.028 -10.595,-10.993 -4.512,-3.22 -9.902,-5.064 -14.98,-7.32 -2.1,-0.922 -4.965,-0.539 -6.582,-2.184 -3.036,-3.135 -7.603,-7.107 -6.582,-11.348 1.504,-6.114 6.596,-12.809 12.795,-13.916 25.803,-4.539 52.371,-2.412 78.571,-2.199 15.023,0.142 148.619,-0.283 163.627,-0.34 16.625,-0.057 33.107,-3.957 49.705,-3.66 4.439,0.085 9.73,1.248 12.426,4.767 2.312,2.993 2.183,8.241 0,11.333 -5.547,7.916 -14,13.377 -21.561,19.392 -7.916,6.326 -14.797,16.256 -24.854,17.575 C 188.422,1.575 34.683,1.461 0,0"
             style="fill:#ffffff;fill-opacity:1;fill-rule:evenodd;stroke:none"
             id="path3360"
             inkscape:connector-curvature="0" /></g><g
           id="g3362"
           transform="matrix(1.3586112,0,0,1.5336116,393.89536,699.02687)"><path
             d="m 0,0 c -4.95,6.454 -8.851,12.922 -5.489,19.391 2.568,-2.808 5.844,-4.397 9.858,-4.752 -0.24,1.574 0.483,2.936 2.199,4.028 6.469,0.61 12.838,-1.063 16.442,-6.964 3.744,-6.086 7.488,-11.831 13.164,-16.455 6.865,-6.355 14.326,-12.696 22.668,-19.051 1.73,-1.929 2.793,-1.248 4,-1.078 -6.526,5.731 -12.824,11.447 -17.903,17.193 3.377,0.766 5.745,-0.143 7.674,-1.831 5.192,-6.099 11.987,-12.199 20.102,-18.298 11.275,-6.256 18.808,-11.93 23.744,-17.207 17.533,-17.518 33.932,-34.754 48.613,-51.223 11.547,-12.993 23.733,-27.448 39.11,-38.796 11.048,-8.185 11.943,-9.291 12.412,-12.823 0.523,-3.745 0.297,-8.029 5.488,-12.441 13.859,-11.731 15.463,-16.894 16.811,-21.221 2.084,-6.667 3.091,-13.533 -2.922,-17.561 -5.491,-3.688 -14.102,-0.511 -21.576,8.766 -8.342,10.384 -15.434,22.229 -27.024,34.031 -31.377,31.987 -59.023,60.911 -108.914,104.317 C 38.783,-34.867 19.49,-17.334 0,0"
             style="fill:#ffffff;fill-opacity:1;fill-rule:evenodd;stroke:none"
             id="path3364"
             inkscape:connector-curvature="0" /></g><g
           id="g3366"
           transform="matrix(1.3586112,0,0,1.5336116,471.33091,644.00933)"><path
             d="m 0,0 c 1.846,-2.071 3.307,-4.511 5.504,-6.213 2.256,-1.773 5.42,-2.199 7.66,-4.029 6.725,-5.532 12.582,-12.057 19.008,-17.93 6.482,-5.943 11.433,-14.639 19.732,-17.561 5.008,-1.773 -13.064,16.1 -8.412,13.533 7.916,-4.369 12.795,-12.81 19.008,-19.391 10.951,-11.604 23.463,-21.988 32.514,-35.137 3.035,-4.412 -9.817,4.567 -13.873,8.043 -6.768,5.773 -11.76,13.362 -18.286,19.391 -10.923,10.1 -22.794,19.15 -33.988,28.923 -5.971,5.235 -11.631,10.795 -17.533,16.115 -2.383,2.128 -4.865,4.142 -7.305,6.213 -3.164,2.681 -7.207,4.582 -9.504,8.043 -1.134,1.73 -2.07,6.228 0,6.228 C -2.709,6.228 -1.814,2.085 0,0"
             style="fill:#224199;fill-opacity:1;fill-rule:evenodd;stroke:none"
             id="path3368"
             inkscape:connector-curvature="0" /></g><g
           id="g3370"
           transform="matrix(1.3586112,0,0,1.5336116,327.34923,600.80458)"><path
             d="m 0,0 c -3.333,-0.142 -6.482,-2.014 -9.135,-4.028 -4.043,-3.078 -6.454,-8.015 -10.596,-10.98 -4.525,-3.234 -9.902,-5.092 -14.98,-7.319 -2.1,-0.937 -4.965,-0.539 -6.582,-2.199 -3.035,-3.135 -7.632,-7.107 -6.582,-11.348 1.504,-6.114 6.597,-12.81 12.795,-13.901 25.804,-4.554 52.372,-2.44 78.572,-2.199 15.022,0.141 29.917,3.348 44.954,3.29 16.596,-0.056 33.094,-3.943 49.703,-3.659 4.426,0.071 9.703,1.248 12.412,4.766 2.326,2.993 2.172,8.256 0,11.348 -5.545,7.916 -14,13.377 -21.547,19.391 -7.943,6.313 -14.795,16.256 -24.867,17.576 C 69.721,5.206 34.683,1.447 0,0"
             style="fill:#ffffff;fill-opacity:1;fill-rule:evenodd;stroke:none"
             id="path3372"
             inkscape:connector-curvature="0" /></g><g
           id="g3374"
           transform="matrix(1.3586112,0,0,1.5336116,385.95659,578.89832)"><path
             d="m 0,0 c 1.787,1.801 4.794,1.702 7.291,2.199 4.228,0.837 8.511,1.503 12.794,1.829 6.426,0.511 12.909,0.738 19.377,0.738 4.383,0 8.768,-0.482 13.137,-0.738 4.027,-0.226 8.084,-0.113 12.086,-0.723 1.545,-0.241 4.367,-0.241 4.367,-1.83 0,-1.517 -2.879,-0.964 -4.367,-1.106 C 61.025,0.042 57.351,-0.057 53.705,0 49.435,0.071 45.179,0.61 40.91,0.737 36.541,0.865 32.115,1.319 27.775,0.737 23.746,0.213 20.085,-2.085 16.072,-2.554 11.716,-3.078 7.234,-2.88 2.907,-2.185 1.702,-2 -0.88,-0.851 0,0"
             style="fill:#224199;fill-opacity:1;fill-rule:evenodd;stroke:none"
             id="path3376"
             inkscape:connector-curvature="0" /></g><g
           id="g3378"
           transform="matrix(1.3586112,0,0,1.5336116,279.88276,545.13479)"><path
             d="m 0,0 c 2.752,-0.255 5.504,-1.035 8.256,-0.78 2.865,0.269 5.475,2.128 8.341,2.312 C 25.277,2.1 34.03,1.362 42.726,1.461 51.534,1.546 61.081,-1.39 69.152,2.142 74.004,4.256 48.598,4.965 53.762,6.27 62.514,8.483 71.833,5.66 80.884,5.121 96.813,4.142 113.055,5.135 128.631,1.73 133.866,0.596 118.333,-1.646 112.999,-1.901 104.133,-2.298 95.295,-0.17 86.417,-0.241 71.521,-0.34 56.712,-1.887 41.832,-2.411 33.902,-2.681 25.959,-2.497 18.015,-2.652 14.838,-2.724 11.632,-2.965 8.439,-3.121 4.283,-3.319 0.042,-4.681 -4,-3.745 -6.015,-3.263 -9.76,-0.624 -8.256,0.794 -6.242,2.695 -2.752,0.27 0,0"
             style="fill:#224199;fill-opacity:1;fill-rule:evenodd;stroke:none"
             id="path3380"
             inkscape:connector-curvature="0" /></g><g
           id="g3382"
           transform="matrix(1.3586112,0,0,1.5336116,406.23169,541.08882)"><path
             d="m 0,0 c 2.041,-1.802 5.447,-1.703 8.283,-2.199 4.781,-0.837 9.633,-1.489 14.498,-1.83 7.291,-0.511 14.625,-0.737 21.93,-0.737 4.992,0 9.93,0.482 14.894,0.737 4.569,0.241 9.165,0.114 13.674,0.724 1.774,0.255 4.965,0.255 4.965,1.829 0,1.518 -3.262,0.965 -4.965,1.107 C 69.166,-0.028 64.996,0.057 60.854,0 56.031,-0.057 51.207,-0.61 46.371,-0.724 c -4.98,-0.141 -9.973,-0.581 -14.91,0 -4.539,0.511 -8.68,2.809 -13.248,3.277 C 13.277,3.078 8.227,2.894 3.318,2.185 1.957,2 -0.965,0.851 0,0"
             style="fill:#224199;fill-opacity:1;fill-rule:evenodd;stroke:none"
             id="path3384"
             inkscape:connector-curvature="0" /></g><g
           id="g3386"
           transform="matrix(1.3586112,0,0,1.5336116,202.90901,426.59445)"><path
             d="m 0,0 c -4.312,-0.127 -8.426,-2.014 -11.873,-4.014 -5.263,-3.093 -8.383,-8.044 -13.773,-10.994 -5.859,-3.22 -2.497,-20.838 -2.383,-21.221 1.971,-6.114 8.567,-12.823 16.638,-13.916 33.52,-4.539 33.861,-2.042 67.891,-1.83 19.505,0.142 193.088,-0.283 212.592,-0.34 21.59,-0.057 -0.197,0.086 21.364,0.369 42.923,0.553 39.988,23.193 31.349,31.463 -7.021,6.738 -14.894,16.823 -32.285,17.575 C 244.497,-0.95 45.053,1.461 0,0"
             style="fill:#ffffff;fill-opacity:1;fill-rule:evenodd;stroke:none"
             id="path3388"
             inkscape:connector-curvature="0" /></g><g
           id="g3390"
           transform="matrix(1.3586112,0,0,1.5336116,333.40063,390.63402)"><path
             d="m 0,0 -0.411,0 -0.44,0.043 c -15.929,1.858 -21.292,13.915 -18.015,28.611 1.845,8.299 5.56,15.292 10.625,22.044 10.525,14.086 31.065,30.172 49.648,30.271 10.057,0.057 17.122,0.057 27.178,0 25.719,-0.142 55.01,-28.682 60.26,-52.315 C 132.134,13.958 126.773,1.901 110.83,0.043 L 110.404,0 109.978,0 0,0"
             style="fill:#224199;fill-opacity:1;fill-rule:evenodd;stroke:none"
             id="path3392"
             inkscape:connector-curvature="0" /></g><g
           id="g3394"
           transform="matrix(1.3586112,0,0,1.5336116,388.42316,691.19487)"><path
             d="m 0,0 c 4.936,6.469 8.852,12.937 5.475,19.391 -2.553,-2.794 -5.844,-4.383 -9.858,-4.738 0.241,1.575 -0.469,2.923 -2.199,4.015 -6.454,0.61 -12.823,-1.064 -16.427,-6.951 -3.744,-6.085 -7.504,-11.83 -13.163,-16.469 -6.866,-6.341 -14.327,-12.682 -22.668,-19.037 -1.702,-1.915 -2.808,-1.248 -4,-1.092 6.525,5.745 12.823,11.462 17.887,17.207 -3.361,0.766 -5.745,-0.156 -7.674,-1.83 -5.178,-6.1 -11.973,-12.213 -20.101,-18.313 -11.277,-6.242 -18.794,-11.901 -23.746,-17.192 -17.518,-17.519 -33.93,-34.754 -48.612,-51.237 -11.547,-12.98 -23.718,-27.435 -39.095,-38.797 -11.049,-8.17 -11.943,-9.277 -12.425,-12.809 -0.511,-3.745 -0.285,-8.029 -5.476,-12.455 -13.873,-11.716 -15.462,-16.88 -16.823,-21.22 -2.072,-6.667 -3.093,-13.519 2.922,-17.562 5.504,-3.688 14.114,-0.496 21.575,8.781 8.342,10.383 15.448,22.228 27.037,34.03 31.363,31.973 59.024,60.911 108.899,104.303 C -38.797,-34.853 -19.477,-17.32 0,0"
             style="fill:#ffffff;fill-opacity:1;fill-rule:evenodd;stroke:none"
             id="path3396"
             inkscape:connector-curvature="0" /></g><g
           id="g3398"
           transform="matrix(1.3586112,0,0,1.5336116,180.86214,509.32711)"><path
             d="m 0,0 c 1.815,2.085 3.263,4.553 5.447,6.27 2.27,1.787 5.419,2.212 7.632,4.057 6.695,5.589 12.511,12.128 18.895,18.057 6.439,5.987 11.334,14.696 19.618,17.703 4.993,1.802 -12.951,-16.185 -8.313,-13.603 7.887,4.426 12.696,12.909 18.88,19.519 C 73.025,63.691 85.494,74.16 94.445,87.366 97.452,91.778 84.657,82.714 80.614,79.21 73.905,73.408 68.94,65.776 62.472,59.691 51.605,49.535 39.804,40.414 28.668,30.569 22.725,25.306 17.107,19.689 11.234,14.355 8.88,12.185 6.384,10.171 3.958,8.085 0.809,5.362 -3.206,3.433 -5.476,-0.042 -6.61,-1.773 -7.518,-6.27 -5.447,-6.256 -2.681,-6.242 -1.815,-2.085 0,0"
             style="fill:#224199;fill-opacity:1;fill-rule:evenodd;stroke:none"
             id="path3400"
             inkscape:connector-curvature="0" /></g><g
           id="g3402"
           transform="matrix(1.3586112,0,0,1.5336116,243.49616,487.33313)"><path
             d="m 0,0 c 1.788,1.802 4.795,1.702 7.306,2.199 4.213,0.851 8.497,1.489 12.781,1.83 6.439,0.511 12.908,0.737 19.377,0.737 4.383,0 8.765,-0.496 13.135,-0.737 C 56.628,3.802 60.698,3.915 64.685,3.305 66.23,3.05 69.068,3.05 69.068,1.475 69.068,-0.042 66.174,0.511 64.685,0.369 61.025,0.014 57.365,-0.042 53.705,0 49.45,0.071 45.194,0.61 40.91,0.738 36.541,0.865 32.115,1.305 27.775,0.738 23.761,0.213 20.087,-2.085 16.086,-2.553 11.703,-3.078 7.234,-2.879 2.923,-2.185 1.702,-2 -0.851,-0.851 0,0"
             style="fill:#224199;fill-opacity:1;fill-rule:evenodd;stroke:none"
             id="path3404"
             inkscape:connector-curvature="0" /></g><g
           id="g3406"
           transform="matrix(1.3586112,0,0,1.5336116,424.3076,459.1613)"><path
             d="m 0,0 c 2.766,-0.27 5.504,-1.05 8.256,-0.78 2.879,0.255 5.474,2.113 8.355,2.298 C 25.293,2.085 34.016,1.348 42.74,1.447 51.549,1.532 61.082,-1.39 69.139,2.128 74.018,4.255 48.598,4.951 53.748,6.255 62.529,8.482 71.848,5.646 80.885,5.106 96.828,4.142 113.057,5.121 128.645,1.73 133.879,0.596 118.348,-1.646 113,-1.901 104.148,-2.313 95.297,-0.17 86.416,-0.255 71.521,-0.354 56.699,-1.873 41.846,-2.412 33.902,-2.695 25.959,-2.482 18.029,-2.667 14.838,-2.738 11.633,-2.965 8.455,-3.121 4.283,-3.333 0.057,-4.695 -3.986,-3.745 -6.014,-3.277 -9.76,-0.624 -8.256,0.78 -6.227,2.681 -2.738,0.255 0,0"
             style="fill:#224199;fill-opacity:1;fill-rule:evenodd;stroke:none"
             id="path3408"
             inkscape:connector-curvature="0" /></g><g
           id="g3410"
           transform="matrix(1.3586112,0,0,1.5336116,322.24261,448.93671)"><path
             d="m 0,0 c -1.787,-1.802 -4.795,-1.702 -7.291,-2.185 -4.228,-0.851 -8.511,-1.489 -12.81,-1.844 -6.425,-0.496 -12.894,-0.723 -19.362,-0.723 -4.384,0 -8.766,0.482 -13.164,0.723 -4,0.241 -8.071,0.128 -12.058,0.752 -1.56,0.227 -4.369,0.241 -4.369,1.816 0,1.503 2.88,0.95 4.369,1.106 3.632,0.341 7.32,0.412 10.98,0.355 4.269,-0.057 8.525,-0.61 12.781,-0.724 4.383,-0.127 8.809,-0.567 13.15,0 4.014,0.525 7.673,2.823 11.703,3.291 4.354,0.511 8.837,0.327 13.149,-0.368 C -1.702,2 0.865,0.879 0,0"
             style="fill:#224199;fill-opacity:1;fill-rule:evenodd;stroke:none"
             id="path3412"
             inkscape:connector-curvature="0" /></g><g
           id="g3414"
           transform="matrix(1.3586112,0,0,1.5336116,309.56134,368.70582)"><path
             d="m 0,0 c 2.752,-0.255 5.504,-1.05 8.256,-0.78 2.865,0.255 5.475,2.113 8.341,2.312 C 25.278,2.085 34.03,1.348 42.726,1.447 51.535,1.546 61.082,-1.39 69.138,2.142 74.003,4.255 48.599,4.951 53.762,6.255 62.515,8.482 71.863,5.646 80.884,5.106 96.814,4.156 113.056,5.121 128.63,1.73 133.865,0.596 118.333,-1.66 113,-1.901 104.134,-2.313 95.296,-0.17 86.416,-0.241 71.537,-0.355 56.685,-1.873 41.832,-2.412 33.902,-2.681 25.959,-2.482 18.016,-2.653 14.838,-2.738 11.632,-2.965 8.44,-3.121 4.284,-3.319 0.043,-4.695 -4,-3.745 -6.015,-3.263 -9.759,-0.625 -8.256,0.794 -6.241,2.681 -2.752,0.27 0,0"
             style="fill:#224199;fill-opacity:1;fill-rule:evenodd;stroke:none"
             id="path3416"
             inkscape:connector-curvature="0" /></g><g
           id="g3418"
           transform="matrix(1.3586112,0,0,1.5336116,224.20497,382.51953)"><path
             d="m 0,0 c 2.028,-1.801 5.447,-1.702 8.284,-2.199 4.78,-0.837 9.618,-1.489 14.497,-1.829 7.292,-0.511 14.612,-0.738 21.931,-0.738 4.978,0 9.943,0.496 14.908,0.738 4.568,0.241 9.15,0.113 13.675,0.723 1.759,0.255 4.965,0.255 4.965,1.83 0,1.518 -3.277,0.964 -4.965,1.106 C 69.153,-0.028 65.011,0.043 60.869,0 56.031,-0.071 51.209,-0.61 46.371,-0.723 41.407,-0.865 36.385,-1.305 31.463,-0.723 26.909,-0.198 22.781,2.085 18.229,2.568 13.277,3.078 8.228,2.894 3.306,2.199 1.943,2 -0.979,0.851 0,0"
             style="fill:#224199;fill-opacity:1;fill-rule:evenodd;stroke:none"
             id="path3420"
             inkscape:connector-curvature="0" /></g><g
           id="g3422"
           transform="matrix(1.3586112,0,0,1.5336116,426.2924,410.192)"><path
             d="m 0,0 c 2.766,0.255 5.504,1.049 8.242,0.78 2.893,-0.256 5.475,-2.113 8.369,-2.312 8.682,-0.568 17.42,0.184 26.129,0.071 8.795,-0.085 18.342,2.851 26.412,-0.667 4.852,-2.128 -20.552,-2.823 -15.404,-4.142 8.766,-2.213 18.1,0.61 27.121,1.149 15.945,0.978 32.172,-0.014 47.777,3.39 5.219,1.149 -10.298,3.362 -15.632,3.631 C 104.133,2.312 95.281,0.17 86.402,0.241 71.537,0.34 56.699,1.872 41.832,2.411 33.902,2.681 25.959,2.482 18.029,2.652 14.824,2.723 11.633,2.964 8.441,3.121 4.285,3.319 0.043,4.695 -3.986,3.745 -6.014,3.262 -9.76,0.624 -8.256,-0.794 -6.227,-2.695 -2.738,-0.27 0,0"
             style="fill:#224199;fill-opacity:1;fill-rule:evenodd;stroke:none"
             id="path3424"
             inkscape:connector-curvature="0" /></g><g
           id="g3426"
           transform="matrix(1.3586112,0,0,1.5336116,498.65963,432.12005)"><path
             d="m 0,0 c 2.639,-11.873 -1.418,-18.483 -11.66,-19.661 -9.703,0 -19.406,0.242 -29.08,0 -7.235,-0.184 -10.242,0.043 -10.979,1.178 -1.617,2.482 -0.482,6.113 2.922,10.625 7.916,10.483 15.83,20.98 23.746,31.476 5.787,6.228 10.412,2.695 15.717,-4.397 C -4.242,12.426 -1.447,6.44 0,0 m -53.096,46.513 c -12.156,0.085 -13.361,-7.49 -12.355,-17.731 l 1.221,-29.165 c 0.298,-7.22 2.212,-10 3.49,-10.469 2.736,-1.049 6.07,0.823 9.758,5.107 8.568,9.958 16.597,21.561 25.179,31.519 4.852,6.965 0.553,10.2 -7.617,14.427 -8.512,4.397 -13.064,6.284 -19.676,6.312 M -133.284,0 c -2.652,-11.873 1.433,-18.483 11.646,-19.661 9.703,0 19.405,0.242 29.108,0 7.235,-0.184 10.228,0.043 10.965,1.178 1.589,2.482 0.482,6.113 -2.922,10.625 -7.915,10.483 -15.845,20.98 -23.746,31.476 -5.787,6.228 -10.412,2.695 -15.717,-4.397 C -129.028,12.426 -131.851,6.44 -133.284,0 m 53.081,46.513 c 12.172,0.085 13.363,-7.49 12.369,-17.731 l -1.219,-29.165 c -0.312,-7.22 -2.213,-10 -3.49,-10.469 -2.752,-1.049 -6.057,0.823 -9.746,5.107 -8.582,9.958 -16.61,21.561 -25.192,31.519 -4.865,6.965 -0.554,10.2 7.617,14.427 8.526,4.397 13.079,6.284 19.661,6.312"
             style="fill:#ffffff;fill-opacity:1;fill-rule:evenodd;stroke:none"
             id="path3428"
             inkscape:connector-curvature="0" /></g><g
           id="g3430"
           transform="matrix(1.3586112,0,0,1.5336116,335.30851,609.76747)"><path
             d="M 0,0 C 26.399,5.348 54.046,6.894 83.31,2.199 84.658,2 84.941,5.206 84.033,6.228 73.253,18.441 62.416,30.924 49.322,40.626 45.791,43.251 39.733,44.286 36.158,41.733 21.761,31.35 10.157,17.448 -1.461,4.029 -2.411,2.951 -1.404,-0.27 0,0"
             style="fill:#ffffff;fill-opacity:1;fill-rule:evenodd;stroke:none"
             id="path3432"
             inkscape:connector-curvature="0" /></g><g
           id="g3434"
           transform="matrix(1.3586112,0,0,1.5336116,350.64995,629.97771)"><path
             d="m 0,0 c 1.532,1.802 4.071,1.702 6.185,2.199 3.574,0.851 7.206,1.503 10.837,1.83 5.447,0.51 10.922,0.723 16.398,0.723 3.731,0 7.434,-0.468 11.149,-0.723 3.404,-0.227 6.838,-0.114 10.215,-0.724 1.318,-0.241 3.715,-0.241 3.715,-1.83 0,-1.517 -2.454,-0.964 -3.715,-1.106 C 51.706,0.028 48.598,-0.057 45.506,0 41.874,0.071 38.272,0.624 34.668,0.738 30.952,0.865 27.207,1.319 23.519,0.738 20.114,0.213 17.022,-2.085 13.617,-2.567 9.93,-3.078 6.156,-2.879 2.468,-2.185 1.461,-2 -0.724,-0.851 0,0"
             style="fill:#224199;fill-opacity:1;fill-rule:evenodd;stroke:none"
             id="path3436"
             inkscape:connector-curvature="0" /></g><g
           id="g3438"
           transform="matrix(1.3586112,0,0,1.5336116,607.73859,261.34704)"><path
             d="m 0,0 c 4.312,0.142 8.428,2.028 11.859,4.029 5.264,3.078 8.399,8.014 13.789,10.979 5.858,3.234 2.497,20.852 2.37,21.221 -1.944,6.114 -8.569,12.823 -16.625,13.916 -33.52,4.553 -33.862,2.057 -67.907,1.83 -19.49,-0.128 -193.087,0.297 -212.577,0.354 -21.59,0.057 0.198,-0.085 -21.378,-0.383 -42.909,-0.553 -39.974,-23.178 -31.335,-31.463 7.022,-6.737 14.894,-16.823 32.286,-17.561 C -244.495,0.964 -45.051,-1.447 0,0"
             style="fill:#ffffff;fill-opacity:1;fill-rule:evenodd;stroke:none"
             id="path3440"
             inkscape:connector-curvature="0" /></g><g
           id="g3442"
           transform="matrix(1.3586112,0,0,1.5336116,202.90901,256.86537)"><path
             d="m 0,0 c -4.312,-0.142 -8.426,-2.028 -11.873,-4.042 -5.263,-3.064 -8.383,-8.001 -13.773,-10.966 -5.859,-3.22 -2.497,-20.838 -2.383,-21.235 1.971,-6.1 8.567,-12.809 16.638,-13.902 33.52,-4.539 33.861,-2.056 67.891,-1.829 19.505,0.127 193.088,-0.298 212.592,-0.355 21.59,-0.057 -0.197,0.085 21.364,0.369 42.923,0.567 39.988,23.192 31.349,31.477 -7.021,6.738 -14.894,16.823 -32.285,17.575 C 244.497,-0.964 45.053,1.447 0,0"
             style="fill:#ffffff;fill-opacity:1;fill-rule:evenodd;stroke:none"
             id="path3444"
             inkscape:connector-curvature="0" /></g><g
           id="g3446"
           transform="matrix(1.3586112,0,0,1.5336116,309.56134,198.97675)"><path
             d="m 0,0 c 2.752,-0.255 5.504,-1.05 8.256,-0.78 2.865,0.255 5.475,2.113 8.341,2.298 C 25.278,2.085 34.03,1.348 42.726,1.433 51.535,1.532 61.082,-1.39 69.138,2.114 74.003,4.255 48.599,4.951 53.762,6.256 62.515,8.483 71.863,5.646 80.884,5.107 96.814,4.142 113.056,5.121 128.63,1.73 133.865,0.582 118.333,-1.66 113,-1.901 104.134,-2.312 95.296,-0.185 86.416,-0.241 71.537,-0.369 56.685,-1.887 41.832,-2.412 33.902,-2.695 25.959,-2.497 18.016,-2.653 14.838,-2.738 11.632,-2.965 8.44,-3.121 4.284,-3.333 0.043,-4.695 -4,-3.745 -6.015,-3.277 -9.759,-0.624 -8.256,0.78 -6.241,2.667 -2.752,0.255 0,0"
             style="fill:#224199;fill-opacity:1;fill-rule:evenodd;stroke:none"
             id="path3448"
             inkscape:connector-curvature="0" /></g><g
           id="g3450"
           transform="matrix(1.3586112,0,0,1.5336116,224.20497,212.76943)"><path
             d="m 0,0 c 2.028,-1.788 5.447,-1.688 8.284,-2.185 4.78,-0.851 9.618,-1.503 14.497,-1.83 7.292,-0.51 14.612,-0.737 21.931,-0.737 4.978,0 9.943,0.468 14.908,0.737 4.568,0.227 9.15,0.114 13.675,0.724 1.759,0.241 4.965,0.241 4.965,1.83 0,1.503 -3.277,0.964 -4.965,1.106 -4.142,0.34 -8.284,0.426 -12.426,0.355 -4.838,-0.057 -9.66,-0.61 -14.498,-0.724 -4.964,-0.128 -9.986,-0.581 -14.908,0 C 26.909,-0.199 22.781,2.099 18.229,2.567 13.277,3.078 8.228,2.894 3.306,2.198 1.943,2.014 -0.979,0.865 0,0"
             style="fill:#224199;fill-opacity:1;fill-rule:evenodd;stroke:none"
             id="path3452"
             inkscape:connector-curvature="0" /></g><g
           id="g3454"
           transform="matrix(1.3586112,0,0,1.5336116,426.2924,240.44115)"><path
             d="m 0,0 c 2.766,0.27 5.504,1.049 8.242,0.794 2.893,-0.269 5.475,-2.127 8.369,-2.312 8.682,-0.567 17.42,0.185 26.129,0.071 8.795,-0.085 18.342,2.851 26.412,-0.681 4.852,-2.128 -20.552,-2.823 -15.404,-4.128 8.766,-2.227 18.1,0.61 27.121,1.149 15.945,0.979 32.172,-0.014 47.777,3.391 5.219,1.134 -10.298,3.362 -15.632,3.631 C 104.133,2.326 95.281,0.198 86.402,0.255 71.537,0.369 56.699,1.901 41.832,2.411 33.902,2.695 25.959,2.511 18.029,2.667 14.824,2.738 11.633,2.964 8.441,3.135 4.285,3.333 0.043,4.695 -3.986,3.759 -6.014,3.291 -9.76,0.624 -8.256,-0.78 -6.227,-2.667 -2.738,-0.255 0,0"
             style="fill:#224199;fill-opacity:1;fill-rule:evenodd;stroke:none"
             id="path3456"
             inkscape:connector-curvature="0" /></g><g
           id="g3458"
           transform="matrix(1.3586112,0,0,1.5336116,333.40063,144.96034)"><path
             d="m 0,0 -0.411,0 -0.44,0.042 c -5.971,0.696 -14.114,5.064 -17.207,12.824 -5.163,12.965 -2.865,59.762 -0.808,68.94 1.845,8.298 5.56,15.291 10.625,22.058 10.525,14.072 31.065,30.157 49.648,30.271 10.057,0.057 17.122,0.057 27.178,0 25.719,-0.156 55.01,-28.697 60.26,-52.329 2.071,-9.178 5.815,-55.251 0.653,-68.202 C 126.404,5.844 116.816,0.738 110.83,0.042 L 110.404,0 109.978,0 0,0"
             style="fill:#224199;fill-opacity:1;fill-rule:evenodd;stroke:none"
             id="path3460"
             inkscape:connector-curvature="0" /></g><g
           id="g3462"
           transform="matrix(1.3586112,0,0,1.5336116,401.56676,319.58379)"><path
             d="m 0,0 c 2.752,-0.27 5.49,-1.05 8.256,-0.794 2.865,0.269 5.474,2.127 8.34,2.312 C 25.277,2.085 34.029,1.333 42.727,1.433 51.535,1.532 61.082,-1.404 69.139,2.114 74.004,4.255 48.598,4.951 53.762,6.242 62.514,8.483 71.834,5.646 80.885,5.092 96.799,4.142 113.057,5.121 128.631,1.73 133.865,0.582 118.332,-1.66 113,-1.901 104.133,-2.326 95.281,-0.199 86.416,-0.255 71.521,-0.369 56.684,-1.887 41.832,-2.412 33.902,-2.695 25.959,-2.497 18.016,-2.667 14.838,-2.738 11.617,-2.965 8.439,-3.121 4.283,-3.333 0.043,-4.695 -4,-3.745 -6.014,-3.291 -9.759,-0.624 -8.255,0.78 -6.242,2.667 -2.752,0.255 0,0"
             style="fill:#224199;fill-opacity:1;fill-rule:evenodd;stroke:none"
             id="path3464"
             inkscape:connector-curvature="0" /></g><g
           id="g3466"
           transform="matrix(1.3586112,0,0,1.5336116,527.91488,315.51542)"><path
             d="m 0,0 c 2.043,-1.801 5.447,-1.702 8.283,-2.198 4.768,-0.837 9.619,-1.49 14.485,-1.83 7.291,-0.511 14.625,-0.724 21.943,-0.724 4.965,0 9.93,0.468 14.894,0.724 4.555,0.241 9.165,0.113 13.676,0.723 1.772,0.255 4.965,0.27 4.965,1.83 0,1.518 -3.264,0.965 -4.965,1.106 C 69.166,-0.028 64.996,0.057 60.854,0 56.031,-0.057 51.209,-0.61 46.371,-0.723 c -4.978,-0.142 -9.973,-0.582 -14.908,0 -4.539,0.511 -8.695,2.808 -13.25,3.291 C 13.277,3.079 8.227,2.894 3.318,2.185 1.957,2 -0.965,0.852 0,0"
             style="fill:#224199;fill-opacity:1;fill-rule:evenodd;stroke:none"
             id="path3468"
             inkscape:connector-curvature="0" /></g><g
           id="g3470"
           transform="matrix(1.3586112,0,0,1.5336116,204.70143,284.95101)"><path
             d="m 0,0 c 2.738,-0.255 5.504,-1.036 8.242,-0.78 2.879,0.269 5.476,2.127 8.355,2.312 C 25.292,2.099 34.017,1.347 42.74,1.447 51.535,1.546 61.067,-1.391 69.139,2.142 74.004,4.27 48.599,4.965 53.748,6.255 62.515,8.482 71.849,5.66 80.87,5.121 96.814,4.142 113.042,5.135 128.646,1.73 c 5.22,-1.134 -10.298,-3.376 -15.632,-3.631 -8.88,-0.412 -17.732,1.716 -26.612,1.66 C 71.536,-0.355 56.698,-1.887 41.832,-2.412 33.903,-2.681 25.945,-2.497 18.029,-2.667 14.824,-2.724 11.632,-2.951 8.44,-3.121 4.284,-3.319 0.043,-4.681 -4,-3.745 -6.015,-3.277 -9.773,-0.625 -8.256,0.794 -6.255,2.681 -2.737,0.27 0,0"
             style="fill:#224199;fill-opacity:1;fill-rule:evenodd;stroke:none"
             id="path3472"
             inkscape:connector-curvature="0" /></g><g
           id="g3474"
           transform="matrix(1.3586112,0,0,1.5336116,331.04968,280.90442)"><path
             d="m 0,0 c 2.028,-1.802 5.447,-1.702 8.271,-2.199 4.793,-0.837 9.617,-1.489 14.497,-1.829 7.291,-0.511 14.625,-0.724 21.944,-0.724 4.979,0 9.944,0.482 14.909,0.724 4.552,0.226 9.134,0.113 13.66,0.723 1.773,0.255 4.978,0.269 4.978,1.83 0,1.517 -3.275,0.964 -4.978,1.106 C 69.154,-0.028 65.011,0.057 60.869,0 56.017,-0.057 51.195,-0.61 46.371,-0.738 41.407,-0.865 36.385,-1.319 31.463,-0.738 26.909,-0.213 22.768,2.085 18.214,2.567 13.277,3.078 8.214,2.879 3.306,2.185 1.943,2 -0.979,0.851 0,0"
             style="fill:#224199;fill-opacity:1;fill-rule:evenodd;stroke:none"
             id="path3476"
             inkscape:connector-curvature="0" /></g></g></g></g></svg>